<svg xmlns="http://www.w3.org/2000/svg"  viewBox="0 0 1082 309" width="1082" height="309">

	<path id="Linija"  class="shp0" d="M1081.09 175.8L1081.09 229.23C1046.88 232.85 1025.03 216.55 993.26 193.01C961.49 169.46 922.25 164.03 868.99 173.08C815.73 182.14 788.63 218.37 750.32 260.93C712.01 303.5 658.75 305.31 549.43 308.02C440.11 310.74 367.81 259.26 333 240.76C298.2 222.26 255.53 208.11 196.03 203.76C136.52 199.4 111.82 190.7 64.66 162.4C19.08 135.05 2.06 58.88 0.98 53.84C0.94 53.66 0.92 53.57 0.92 53.57L0.92 0.14C0.92 0.14 0.94 0.23 0.98 0.41C2.06 5.45 19.08 81.61 64.66 108.97C111.82 137.26 136.52 145.97 196.03 150.32C255.53 154.67 298.2 168.82 333 187.32C367.81 205.82 440.11 257.31 549.43 254.59C658.75 251.87 712.01 250.06 750.32 207.5C788.63 164.93 815.73 128.71 868.99 119.65C922.25 110.59 961.49 116.03 993.26 139.57C1025.03 163.12 1046.88 179.42 1081.09 175.8Z" />
</svg>